<svg xmlns="http://www.w3.org/2000/svg" viewBox="0 0 484.02 112.05"><defs><style>.cls-1{fill:#6a54a0;}.cls-2{fill:#797c82;}.cls-3{fill:#b5a6cc;}</style></defs><g id="레이어_2" data-name="레이어 2"><g id="레이어_4" data-name="레이어 4"><path class="cls-1" d="M33.78,105,72.23,40.06l5.48,3.61L65.23,64.28l3.41,2.37L83.09,42.33l-8.9-5.78S82.82,22.06,83.38,21c3.42,5.64,12.48,22.18,18.29,32.52,2.09,3.72,1.37,7.9-.79,11.59C94.23,76.53,87.62,88,80.94,99.36a11.38,11.38,0,0,1-5.23,4.88,10.59,10.59,0,0,1-4.08.82C67.5,105.1,33.78,105,33.78,105Z"/><path class="cls-1" d="M19.12,94.29c-6-10.36-11.89-19.5-17.39-29.09A12,12,0,0,1,1.9,52.5c6.46-11.14,13-22.26,19.41-33.41,2.14-3.69,5.24-6.17,9.54-6.23,11.94-.17,23.88-.06,36.71-.06Z"/><path class="cls-1" d="M167.82,57.14l-12,25h-7l-13-26v26h-9s0-27.29,0-37.1c0-1.87-3-1.87-3-1.87v-8h4.57c6.49,0,6.91,2.14,9.7,7.25l14.25,28.82,16.5-36.07h9v47h-10Z"/><path class="cls-1" d="M257.85,82.12l-3-11-19.51,0-2.47,11h-9s7.53-27,10.4-38.79c1.8-5.29,5.09-8.2,9.59-8.2,5.66,0,9.5,3.91,11.56,9.4,2.6,6.94,11.4,37.58,11.4,37.58Zm-5-19s-3.41-11.32-5-15.86c-.43-1.21-1.34-4.12-3.77-4.12-1.58,0-2.51,2.56-2.86,3.69-1.2,3.92-4.32,16.29-4.32,16.29Z"/><path class="cls-2" d="M321.82,48.14a22.33,22.33,0,0,0-7-5.08,23.13,23.13,0,0,0-12-1.56c-2.78.32-7,2.81-7,6.12s2.35,4.47,4.82,5.4c3.88,1.46,7.85,2.67,11.8,3.94,7.87,2.54,11.52,6,11.51,12.64,0,6.26-6.55,12.49-14.16,13.19-5.3.48-10.58.47-15.78-1.35-3.2-1.13-6-2.35-6-2.35v-9a27.15,27.15,0,0,0,20.67,5.57c3.15-.41,7.38-2.66,7.46-6,.08-3.1-2.49-5.8-5.83-6.89-5.52-1.8-10-3.37-15.53-5.28a10,10,0,0,1-4.19-16.33c6.07-7,18.51-6.29,24.6-4.42a44.59,44.59,0,0,1,6.83,3.36Z"/><path class="cls-1" d="M218.68,48.14a22.36,22.36,0,0,0-7-5.08,23.17,23.17,0,0,0-12.06-1.56c-2.77.32-6.94,2.81-7,6.12s2.35,4.47,4.82,5.4c3.88,1.46,7.85,2.67,11.8,3.94,7.87,2.54,11.52,6,11.51,12.64,0,6.26-6.56,12.49-14.17,13.19-5.29.48-10.57.47-15.77-1.35-3.2-1.13-6-2.35-6-2.35v-9A28,28,0,0,0,199,75.79a28.33,28.33,0,0,0,6.44-.15c3.15-.41,7.37-2.66,7.46-6,.08-3.1-2.49-5.8-5.83-6.89-5.52-1.8-10-3.37-15.53-5.28a10,10,0,0,1-4.19-16.33c6.07-7,18.51-6.29,24.59-4.42a44.36,44.36,0,0,1,6.84,3.36Z"/><path class="cls-2" d="M363,35.11h7.89l0,16s2.18-3,9.18-3c9.61,0,15.5,6.16,15.5,13.78.14,2.75.19,20.19.19,20.19h-7.29s.16-15.11,0-20.06c-.16-4.72-4.54-7.75-9-7.75-4.2,0-8.34,3.09-8.53,7.36-.17,3.68,0,20.45,0,20.45H363Z"/><path class="cls-2" d="M470.8,65.67c0,11.64-6.85,17.5-17,17.5-9.79-.19-17.06-7.09-17-17.85a17.18,17.18,0,0,1,16.74-17.18A16.92,16.92,0,0,1,470.8,65.67Zm-25.71-.35c0,7.47,3.67,11.07,8.58,11.07,5.88,0,9.2-3.28,9.2-10.74s-4-11.35-9.29-11.35C449.38,54.3,445.09,58,445.09,65.32Z"/><path class="cls-2" d="M433.86,65.67c0,11.64-6.84,17.5-17,17.5-9.78-.19-17.06-7.09-17-17.85A17.18,17.18,0,0,1,416.6,48.14,16.91,16.91,0,0,1,433.86,65.67Zm-25.71-.35c0,7.47,3.67,11.07,8.58,11.07,5.88,0,9.16-3.28,9.16-10.74S422,54.3,416.65,54.3C412.45,54.3,408.15,58,408.15,65.32Z"/><path class="cls-2" d="M357.88,58.13a17.74,17.74,0,0,0-7-3.88c-4.16-1.08-8.3-1.15-12,2.7s-3.21,14.12.53,17.44c3.26,2.9,9.07,3,12.93,1.36a14.59,14.59,0,0,0,5.5-4.54v7.41A20.37,20.37,0,0,1,352,81.83c-3.48,1.22-11,1.23-15.83-1.77-6-3.74-8.66-10.61-7.17-18.93,1-5.75,6-11.32,11.94-12.5a24.4,24.4,0,0,1,10.89.26,22.7,22.7,0,0,1,6,2.69Z"/><polygon class="cls-2" points="474.92 35.09 483.9 35.09 484.02 82.06 474.9 82.11 474.92 35.09"/><path class="cls-3" d="M79.46,0c4.31,0,7.83,2.52,8.92,5.75,1.36,4-.28,8-3.53,12.56-1.18-.81-4.46-3-7.82-5-3.53-2.07-6.83-3.64-8-4.25C70.84,4.74,74.66,0,79.46,0Z"/><path class="cls-3" d="M32.92,105.88s-8.34,4.1-13.44,6c-1.41.51-1.73.1-1.73-1,0-4.1.27-15.33.27-15.33a29.73,29.73,0,0,0,7.11,6.24C29,104,32.92,105.88,32.92,105.88Z"/></g></g></svg>